<svg width="116" height="60" fill="none" xmlns="http://www.w3.org/2000/svg"><mask id="a" fill="#fff"><path fill-rule="evenodd" clip-rule="evenodd" d="M10 0C4.477 0 0 4.477 0 10v40c0 5.523 4.477 10 10 10h80c5.523 0 10-4.477 10-10V25.397l15.84-17.7-15.989.574C99.031 3.572 94.933 0 90 0H10z"/></mask><path fill-rule="evenodd" clip-rule="evenodd" d="M10 0C4.477 0 0 4.477 0 10v40c0 5.523 4.477 10 10 10h80c5.523 0 10-4.477 10-10V25.397l15.84-17.7-15.989.574C99.031 3.572 94.933 0 90 0H10z" fill="#fff"/><path d="M100 25.397l-1.49-1.333-.51.57v.763h2zm15.84-17.7l1.491 1.334 3.133-3.5-4.695.168.071 1.998zm-15.989.574l-1.97.343.3 1.718 1.742-.063-.072-1.998zM2 10a8 8 0 018-8v-4C3.373-2-2 3.373-2 10h4zm0 40V10h-4v40h4zm8 8a8 8 0 01-8-8h-4c0 6.627 5.373 12 12 12v-4zm80 0H10v4h80v-4zm8-8a8 8 0 01-8 8v4c6.627 0 12-5.373 12-12h-4zm0-24.603V50h4V25.397h-4zm16.35-19.033l-15.84 17.7 2.98 2.667 15.841-17.7-2.981-2.667zm-14.427 3.905l15.989-.573-.143-3.997-15.99.573.144 3.997zM90 2a8.003 8.003 0 017.88 6.614l3.941-.687C100.838 2.287 95.921-2 90-2v4zM10 2h80v-4H10v4z" fill="#E3E5EB" mask="url(#a)"/></svg>