<svg width="116" height="60" viewBox="0 0 116 60" fill="none" xmlns="http://www.w3.org/2000/svg">
<mask id="path-1-inside-1" fill="white">
<path fill-rule="evenodd" clip-rule="evenodd" d="M10 0C4.47715 0 0 4.47715 0 10V50C0 55.5228 4.47716 60 10 60H90C95.5229 60 100 55.5228 100 50V25.3974L115.84 7.6973L99.851 8.27059C99.0318 3.57198 94.9331 0 90 0H10Z"/>
</mask>
<path fill-rule="evenodd" clip-rule="evenodd" d="M10 0C4.47715 0 0 4.47715 0 10V50C0 55.5228 4.47716 60 10 60H90C95.5229 60 100 55.5228 100 50V25.3974L115.84 7.6973L99.851 8.27059C99.0318 3.57198 94.9331 0 90 0H10Z" fill="white"/>
<path d="M100 25.3974L98.5097 24.0637L98 24.6332V25.3974H100ZM115.84 7.6973L117.331 9.03105L120.464 5.53025L115.769 5.69859L115.84 7.6973ZM99.851 8.27059L97.8807 8.6141L98.1802 10.3318L99.9227 10.2693L99.851 8.27059ZM2 10C2 5.58172 5.58172 2 10 2V-2C3.37258 -2 -2 3.37258 -2 10H2ZM2 50V10H-2V50H2ZM10 58C5.58172 58 2 54.4183 2 50H-2C-2 56.6274 3.37259 62 10 62V58ZM90 58H10V62H90V58ZM98 50C98 54.4183 94.4183 58 90 58V62C96.6274 62 102 56.6274 102 50H98ZM98 25.3974V50H102V25.3974H98ZM114.35 6.36355L98.5097 24.0637L101.49 26.7312L117.331 9.03105L114.35 6.36355ZM99.9227 10.2693L115.912 9.69602L115.769 5.69859L99.7793 6.27188L99.9227 10.2693ZM90 2C93.9444 2 97.2256 4.85661 97.8807 8.6141L101.821 7.92709C100.838 2.28735 95.9217 -2 90 -2V2ZM10 2H90V-2H10V2Z" fill="#E3E5EB" mask="url(#path-1-inside-1)"/>
</svg>
